<svg xmlns="http://www.w3.org/2000/svg" version="1.1" xmlns:xlink="http://www.w3.org/1999/xlink" width="2000" height="157" viewBox="0 0 2000 157"><svg xml:space="preserve" width="2000" height="157" data-version="2" data-id="lg_fIxa9Pbi4D7YrvWAid" viewBox="0 0 565 157" x="0" y="0"><rect width="100%" height="100%" fill="transparent"></rect><path fill="#4962bf" d="M53.405 122.38q-7.74 0-14.53-2.93-6.8-2.93-11.92-8.05-5.11-5.12-8.04-11.92-2.93-6.79-2.93-14.53V60.11H5.595V38.86h10.39V5.42h21.25v33.44h32.34v21.25h-32.34v24.84q0 3.36 1.25 6.29t3.43 5.12q2.19 2.19 5.16 3.48t6.33 1.29h16.17v21.25Z"></path><rect width="63.98" height="116.96" x="-31.99" y="-58.48" fill="none" rx="0" ry="0" transform="translate(38.09 64.4)"></rect><path fill="#4962bf" d="M102.855 122.38h-21.33V38.7h5.16l7.03 9.93q5.16-4.69 11.72-7.23 6.56-2.54 13.59-2.54h18.83v21.25h-18.83q-3.36 0-6.32 1.25-2.97 1.25-5.16 3.44-2.19 2.18-3.44 5.15t-1.25 6.33Z"></path><rect width="56.33" height="83.68" x="-28.16" y="-41.84" fill="none" rx="0" ry="0" transform="translate(110.19 81.04)"></rect><path fill="#4962bf" d="M172.935 15.97q0 2.97-1.13 5.55-1.14 2.57-3.09 4.49-1.95 1.91-4.57 3.04-2.62 1.14-5.59 1.14-2.96 0-5.58-1.14-2.62-1.13-4.53-3.04-1.92-1.92-3.05-4.49-1.13-2.58-1.13-5.55 0-2.89 1.13-5.51 1.13-2.62 3.05-4.53 1.91-1.91 4.53-3.05 2.62-1.13 5.58-1.13 2.97 0 5.59 1.13 2.62 1.14 4.57 3.05 1.95 1.91 3.09 4.53 1.13 2.62 1.13 5.51m-3.67 106.41h-21.49V38.7h21.49Z"></path><rect width="28.67" height="120.63" x="-14.34" y="-60.31" fill="none" rx="0" ry="0" transform="translate(159.1 62.56)"></rect><path fill="#4962bf" d="M206.995 154.25h-21.48V38.7h5.15l8.52 10.08q2.89-2.73 6.33-5.15 3.44-2.43 7.15-4.18 3.71-1.76 7.69-2.78 3.99-1.01 8.05-1.01 8.83 0 16.6 3.16 7.77 3.16 13.59 8.95 5.82 5.78 9.18 13.94 3.36 8.17 3.36 18.09 0 10.31-3.36 18.55t-9.18 13.99q-5.82 5.74-13.59 8.79-7.77 3.04-16.6 3.04-2.81 0-5.59-.62-2.77-.63-5.47-1.68-2.69-1.06-5.31-2.39-2.62-1.32-5.04-2.73Zm42.74-74.45q0-5.32-1.68-9.53-1.68-4.22-4.57-7.15-2.89-2.93-6.8-4.49-3.91-1.57-8.28-1.57-4.38 0-8.24 1.57-3.87 1.56-6.76 4.49-2.89 2.93-4.57 7.15-1.68 4.21-1.68 9.53 0 5.08 1.68 9.29 1.68 4.22 4.57 7.19 2.89 2.97 6.76 4.61 3.86 1.64 8.24 1.64 4.37 0 8.28-1.64 3.91-1.64 6.8-4.61 2.89-2.97 4.57-7.19 1.68-4.21 1.68-9.29"></path><rect width="85.62" height="118.59" x="-42.81" y="-59.3" fill="none" rx="0" ry="0" transform="translate(228.82 95.45)"></rect><path fill="#4962bf" d="M304.415 154.25h-21.48V38.7h5.16l8.51 10.08q2.89-2.73 6.33-5.15 3.44-2.43 7.15-4.18 3.71-1.76 7.69-2.78 3.99-1.01 8.05-1.01 8.83 0 16.6 3.16 7.78 3.16 13.6 8.95 5.82 5.78 9.18 13.94 3.35 8.17 3.35 18.09 0 10.31-3.35 18.55-3.36 8.24-9.18 13.99-5.82 5.74-13.6 8.79-7.77 3.04-16.6 3.04-2.81 0-5.59-.62-2.77-.63-5.46-1.68-2.7-1.06-5.32-2.39-2.61-1.32-5.04-2.73Zm42.74-74.45q0-5.32-1.68-9.53-1.68-4.22-4.57-7.15-2.89-2.93-6.8-4.49-3.9-1.57-8.28-1.57-4.37 0-8.24 1.57-3.87 1.56-6.76 4.49-2.89 2.93-4.57 7.15-1.68 4.21-1.68 9.53 0 5.08 1.68 9.29 1.68 4.22 4.57 7.19 2.89 2.97 6.76 4.61 3.87 1.64 8.24 1.64 4.38 0 8.28-1.64 3.91-1.64 6.8-4.61 2.89-2.97 4.57-7.19 1.68-4.21 1.68-9.29"></path><rect width="85.62" height="118.59" x="-42.81" y="-59.3" fill="none" rx="0" ry="0" transform="translate(326.25 95.45)"></rect><path fill="#4962bf" d="M401.845 122.38h-21.49V5.42h21.49Z"></path><rect width="21.49" height="116.96" x="-10.74" y="-58.48" fill="none" rx="0" ry="0" transform="translate(391.6 64.4)"></rect><path fill="#4962bf" d="M451.375 101.91q1.25.39 2.5.5 1.25.12 2.5.12 3.12 0 6.01-.86 2.89-.86 5.43-2.46 2.54-1.6 4.53-3.91 2-2.3 3.25-5.11l15.62 15.7q-2.97 4.22-6.84 7.58-3.86 3.36-8.35 5.7-4.5 2.35-9.46 3.56-4.96 1.21-10.19 1.21-8.83 0-16.6-3.28-7.78-3.28-13.6-9.14-5.82-5.86-9.18-13.95-3.36-8.09-3.36-17.77 0-9.92 3.36-18.13 3.36-8.2 9.18-13.98 5.82-5.78 13.6-8.99 7.77-3.2 16.6-3.2 5.23 0 10.23 1.25t9.49 3.59q4.5 2.35 8.4 5.75 3.91 3.39 6.88 7.61Zm10.93-43.99q-1.48-.54-2.93-.7-1.44-.16-3-.16-4.38 0-8.25 1.6-3.86 1.61-6.71 4.57-2.86 2.97-4.5 7.15-1.64 4.18-1.64 9.42 0 1.17.12 2.65.12 1.49.39 3.01.27 1.52.67 2.93.39 1.41 1.01 2.5Z"></path><rect width="77.74" height="88.44" x="-38.87" y="-44.22" fill="none" rx="0" ry="0" transform="translate(453 80.22)"></rect><path fill="#4962bf" d="M523.405 122.38h-21.33V38.7h5.16l7.03 9.93q5.15-4.69 11.72-7.23 6.56-2.54 13.59-2.54h18.83v21.25h-18.83q-3.36 0-6.33 1.25t-5.15 3.44q-2.19 2.18-3.44 5.15t-1.25 6.33Z"></path><rect width="56.33" height="83.68" x="-28.16" y="-41.84" fill="none" rx="0" ry="0" transform="translate(530.74 81.04)"></rect></svg></svg>